<svg width="802" height="605" xmlns="http://www.w3.org/2000/svg" xmlns:xlink="http://www.w3.org/1999/xlink" xml:space="preserve" overflow="hidden"><g transform="translate(-1356 -770)"><g><path d="M1491.5 1066.5C1491.5 1036.12 1516.12 1011.5 1546.5 1011.5 1576.88 1011.5 1601.5 1036.12 1601.5 1066.5 1601.5 1096.88 1576.88 1121.5 1546.5 1121.5 1516.12 1121.5 1491.5 1096.88 1491.5 1066.5Z" stroke="#000000" stroke-width="6.875" stroke-linecap="butt" stroke-linejoin="miter" stroke-miterlimit="8" stroke-opacity="1" fill="#E2F0D9" fill-rule="evenodd" fill-opacity="1"/><text fill="#000000" fill-opacity="1" font-family="Helvetica,Helvetica_MSFontService,sans-serif" font-style="normal" font-variant="normal" font-weight="400" font-stretch="normal" font-size="92" text-anchor="start" direction="ltr" writing-mode="lr-tb" unicode-bidi="normal" text-decoration="none" transform="matrix(1 0 0 1 1537.56 1097)">i</text><path d="M1365.19 992.509 1457.68 1044.87 1454.3 1050.85 1361.81 998.491ZM1458.78 1033.63 1491.89 1068.18 1445.23 1057.57Z" fill="#000000" fill-rule="nonzero" fill-opacity="1"/><path d="M1915.5 1072.5C1915.5 1042.12 1940.12 1017.5 1970.5 1017.5 2000.88 1017.5 2025.5 1042.12 2025.5 1072.5 2025.5 1102.88 2000.88 1127.5 1970.5 1127.5 1940.12 1127.5 1915.5 1102.88 1915.5 1072.5Z" stroke="#000000" stroke-width="6.875" stroke-linecap="butt" stroke-linejoin="miter" stroke-miterlimit="8" stroke-opacity="1" fill="#E2F0D9" fill-rule="evenodd" fill-opacity="1"/><text fill="#000000" fill-opacity="1" font-family="Helvetica,Helvetica_MSFontService,sans-serif" font-style="normal" font-variant="normal" font-weight="400" font-stretch="normal" font-size="83" text-anchor="start" direction="ltr" writing-mode="lr-tb" unicode-bidi="normal" text-decoration="none" transform="matrix(1 0 0 1 1962.45 1104)">j</text><path d="M1601.51 1065.06 1874 1065.75 1873.98 1072.63 1601.49 1071.94ZM1869.44 1055.43 1915.24 1069.29 1869.37 1082.93Z" fill="#000000" fill-rule="nonzero" fill-opacity="1"/><path d="M1.69343-2.99144 94.1837 49.3667 90.7968 55.3496-1.69343 2.99144ZM95.2754 38.1345 128.387 72.6794 81.7279 62.066Z" fill="#000000" fill-rule="nonzero" fill-opacity="1" transform="matrix(1 0 0 -1 1363.5 1139.18)"/><path d="M1.69344-2.99143 94.1833 49.3667 90.7965 55.3496-1.69344 2.99143ZM95.2751 38.1345 128.387 72.6794 81.7276 62.066Z" fill="#000000" fill-rule="nonzero" fill-opacity="1" transform="matrix(-1 0 0 1 2153.89 1001.5)"/><path d="M2152.19 1147.17 2059.7 1094.81 2063.09 1088.83 2155.58 1141.19ZM2058.61 1106.04 2025.5 1071.5 2072.16 1082.11Z" fill="#000000" fill-rule="nonzero" fill-opacity="1"/><path d="M1669.5 829.5C1669.5 799.124 1694.12 774.5 1724.5 774.5 1754.88 774.5 1779.5 799.124 1779.5 829.5 1779.5 859.876 1754.88 884.5 1724.5 884.5 1694.12 884.5 1669.5 859.876 1669.5 829.5Z" stroke="#000000" stroke-width="6.875" stroke-linecap="butt" stroke-linejoin="miter" stroke-miterlimit="8" stroke-opacity="1" fill="#FF7C80" fill-rule="evenodd" fill-opacity="0.8"/><text fill="#000000" fill-opacity="1" font-family="Helvetica,Helvetica_MSFontService,sans-serif" font-style="normal" font-variant="normal" font-weight="400" font-stretch="normal" font-size="64" text-anchor="start" direction="ltr" writing-mode="lr-tb" unicode-bidi="normal" text-decoration="none" transform="matrix(1 0 0 1 1691.9 849)">G</text><text fill="#000000" fill-opacity="1" font-family="Helvetica,Helvetica_MSFontService,sans-serif" font-style="normal" font-variant="normal" font-weight="400" font-stretch="normal" font-size="43" text-anchor="start" direction="ltr" writing-mode="lr-tb" unicode-bidi="normal" text-decoration="none" transform="matrix(1 0 0 1 1741.74 864)">k</text><path d="M1671.5 1296.5C1671.5 1266.12 1696.12 1241.5 1726.5 1241.5 1756.88 1241.5 1781.5 1266.12 1781.5 1296.5 1781.5 1326.88 1756.88 1351.5 1726.5 1351.5 1696.12 1351.5 1671.5 1326.88 1671.5 1296.5Z" stroke="#000000" stroke-width="6.875" stroke-linecap="butt" stroke-linejoin="miter" stroke-miterlimit="8" stroke-opacity="1" fill="#9DC3E6" fill-rule="evenodd" fill-opacity="1"/><text fill="#000000" fill-opacity="1" font-family="Helvetica,Helvetica_MSFontService,sans-serif" font-style="normal" font-variant="normal" font-weight="400" font-stretch="normal" font-size="64" text-anchor="start" direction="ltr" writing-mode="lr-tb" unicode-bidi="normal" text-decoration="none" transform="matrix(1 0 0 1 1704.79 1316)">L</text><text fill="#000000" fill-opacity="1" font-family="Helvetica,Helvetica_MSFontService,sans-serif" font-style="normal" font-variant="normal" font-weight="400" font-stretch="normal" font-size="43" text-anchor="start" direction="ltr" writing-mode="lr-tb" unicode-bidi="normal" text-decoration="none" transform="matrix(1 0 0 1 1740.31 1331)">l</text><path d="M1727.94 884.5 1727.94 905.125 1721.06 905.125 1721.06 884.5ZM1727.94 912 1727.94 932.625 1721.06 932.625 1721.06 912ZM1727.94 939.5 1727.94 960.125 1721.06 960.125 1721.06 939.5ZM1727.94 967 1727.94 987.625 1721.06 987.625 1721.06 967ZM1727.94 994.5 1727.94 1015.12 1721.06 1015.12 1721.06 994.5ZM1727.94 1022 1727.94 1042.62 1721.06 1042.62 1721.06 1022ZM1743.51 1017.18 1724.5 1049.77 1705.49 1017.18C1704.53 1015.54 1705.09 1013.44 1706.73 1012.48 1708.37 1011.52 1710.47 1012.08 1711.43 1013.72L1727.47 1041.22 1721.53 1041.22 1737.57 1013.72C1738.53 1012.08 1740.63 1011.52 1742.27 1012.48 1743.91 1013.44 1744.47 1015.54 1743.51 1017.18Z" fill="#FF7C80" fill-rule="nonzero" fill-opacity="1"/><path d="M1729.94 1085.5 1729.94 1106.13 1723.06 1106.13 1723.06 1085.5ZM1729.94 1113 1729.94 1133.63 1723.06 1133.63 1723.06 1113ZM1729.94 1140.5 1729.94 1161.13 1723.06 1161.13 1723.06 1140.5ZM1729.94 1168 1729.94 1188.63 1723.06 1188.63 1723.06 1168ZM1729.94 1195.5 1729.94 1216.13 1723.06 1216.13 1723.06 1195.5ZM1729.94 1223 1729.94 1234.25 1723.06 1234.25 1723.06 1223ZM1745.51 1208.48 1726.5 1241.07 1707.49 1208.48 1707.49 1208.48C1706.53 1206.84 1707.09 1204.74 1708.73 1203.78 1710.37 1202.82 1712.47 1203.38 1713.43 1205.02L1713.43 1205.02 1729.47 1232.52 1723.53 1232.52 1739.57 1205.02C1740.53 1203.38 1742.63 1202.82 1744.27 1203.78 1745.91 1204.74 1746.47 1206.84 1745.51 1208.48Z" fill="#5B9BD5" fill-rule="nonzero" fill-opacity="1"/><text fill="#FF7C80" fill-opacity="1" font-family="Georgia,Georgia_MSFontService,sans-serif" font-style="normal" font-variant="normal" font-weight="400" font-stretch="normal" font-size="55" text-anchor="start" direction="ltr" writing-mode="lr-tb" unicode-bidi="normal" text-decoration="none" transform="matrix(1 0 0 1 1759.01 971)">D</text><text fill="#FF7C80" fill-opacity="1" font-family="Georgia,Georgia_MSFontService,sans-serif" font-style="normal" font-variant="normal" font-weight="400" font-stretch="normal" font-size="37" text-anchor="start" direction="ltr" writing-mode="lr-tb" unicode-bidi="normal" text-decoration="none" transform="matrix(1 0 0 1 1800.26 954)">G</text><text fill="#FF7C80" fill-opacity="1" font-family="Georgia,Georgia_MSFontService,sans-serif" font-style="normal" font-variant="normal" font-weight="400" font-stretch="normal" font-size="37" text-anchor="start" direction="ltr" writing-mode="lr-tb" unicode-bidi="normal" text-decoration="none" transform="matrix(1 0 0 1 1826.62 984)">ij,k</text><text fill="#5B9BD5" fill-opacity="1" font-family="Georgia,Georgia_MSFontService,sans-serif" font-style="normal" font-variant="normal" font-weight="400" font-stretch="normal" font-size="55" text-anchor="start" direction="ltr" writing-mode="lr-tb" unicode-bidi="normal" text-decoration="none" transform="matrix(1 0 0 1 1765.6 1172)">D</text><text fill="#5B9BD5" fill-opacity="1" font-family="Georgia,Georgia_MSFontService,sans-serif" font-style="normal" font-variant="normal" font-weight="400" font-stretch="normal" font-size="37" text-anchor="start" direction="ltr" writing-mode="lr-tb" unicode-bidi="normal" text-decoration="none" transform="matrix(1 0 0 1 1806.85 1155)">L</text><text fill="#5B9BD5" fill-opacity="1" font-family="Georgia,Georgia_MSFontService,sans-serif" font-style="normal" font-variant="normal" font-weight="400" font-stretch="normal" font-size="37" text-anchor="start" direction="ltr" writing-mode="lr-tb" unicode-bidi="normal" text-decoration="none" transform="matrix(1 0 0 1 1829.2 1185)">ij,l</text></g></g></svg>